<svg width="40" height="40" viewBox="0 0 40 40" fill="none" xmlns="http://www.w3.org/2000/svg">
  <rect width="40" height="40" rx="10" fill="black"/>
  <path d="M20 8C14.477 8 10 12.477 10 18C10 21.991 12.156 25.442 15.5 27.241L15.5 32C15.5 32.167 15.597 32.319 15.753 32.394C15.808 32.423 15.869 32.438 15.93 32.438C16.036 32.438 16.14 32.397 16.217 32.32L19.2 29.338L19.2 29.338C19.453 29.363 19.72 29.375 20 29.375C25.523 29.375 30 24.898 30 18.375C30 11.852 25.523 8 20 8Z" stroke="white" stroke-width="2" stroke-linecap="round" stroke-linejoin="round"/>
  <path d="M22.5 14.5L17.5 24.5" stroke="white" stroke-width="2" stroke-linecap="round"/>
  <path d="M25 18.5C25 19.328 24.328 20 23.5 20C22.672 20 22 19.328 22 18.5C22 17.672 22.672 17 23.5 17C24.328 17 25 17.672 25 18.5Z" fill="white"/>
  <path d="M18 21.5C18 22.328 17.328 23 16.5 23C15.672 23 15 22.328 15 21.5C15 20.672 15.672 20 16.5 20C17.328 20 18 20.672 18 21.5Z" fill="white"/>
</svg>
